<svg width="23" height="22" viewBox="0 0 23 22" fill="none" xmlns="http://www.w3.org/2000/svg">
<path d="M10.3995 1.10048L1.20697 10.293C1.0195 10.4805 0.914185 10.7348 0.914185 11C0.914185 11.2651 1.0195 11.5194 1.20697 11.707L10.4 20.9C10.5875 21.0874 10.8418 21.1928 11.107 21.1928C11.3721 21.1928 11.6264 21.0874 11.814 20.9L21.0065 11.7075C21.1939 11.5199 21.2993 11.2656 21.2993 11.0005C21.2993 10.7353 21.1939 10.481 21.0065 10.2935L11.8135 1.09998C11.6259 0.912505 11.3716 0.80719 11.1065 0.80719C10.8413 0.80719 10.587 0.912505 10.3995 1.09998V1.10048Z" stroke="white" stroke-opacity="0.75" stroke-width="1.5" stroke-linejoin="round"/>
<path d="M8 11H14M11 8V14" stroke="white" stroke-opacity="0.75" stroke-width="1.5" stroke-linecap="round"/>
</svg>
